<svg id="visual" viewBox="0 0 900 300" width="900" height="300" xmlns="http://www.w3.org/2000/svg" xmlns:xlink="http://www.w3.org/1999/xlink" version="1.1"><rect x="0" y="0" width="900" height="300" fill="#1a7d82"></rect><path d="M0 160L10.7 160.2C21.3 160.3 42.7 160.7 64.2 155.7C85.7 150.7 107.3 140.3 128.8 139.7C150.3 139 171.7 148 193 150.3C214.3 152.7 235.7 148.3 257 148.5C278.3 148.7 299.7 153.3 321.2 161.5C342.7 169.7 364.3 181.3 385.8 183.5C407.3 185.7 428.7 178.3 450 168.2C471.3 158 492.7 145 514.2 140C535.7 135 557.3 138 578.8 147.3C600.3 156.7 621.7 172.3 643 173.3C664.3 174.3 685.7 160.7 707 151.5C728.3 142.3 749.7 137.7 771.2 143.7C792.7 149.7 814.3 166.3 835.8 167.8C857.3 169.3 878.7 155.7 889.3 148.8L900 142L900 301L889.3 301C878.7 301 857.3 301 835.8 301C814.3 301 792.7 301 771.2 301C749.7 301 728.3 301 707 301C685.7 301 664.3 301 643 301C621.7 301 600.3 301 578.8 301C557.3 301 535.7 301 514.2 301C492.7 301 471.3 301 450 301C428.7 301 407.3 301 385.8 301C364.3 301 342.7 301 321.2 301C299.7 301 278.3 301 257 301C235.7 301 214.3 301 193 301C171.7 301 150.3 301 128.8 301C107.3 301 85.7 301 64.2 301C42.7 301 21.3 301 10.7 301L0 301Z" fill="#003732"></path><path d="M0 185L10.7 181C21.3 177 42.7 169 64.2 174.5C85.7 180 107.3 199 128.8 208.5C150.3 218 171.7 218 193 209.7C214.3 201.3 235.7 184.7 257 176.5C278.3 168.3 299.7 168.7 321.2 176.7C342.7 184.7 364.3 200.3 385.8 201.7C407.3 203 428.7 190 450 184.2C471.3 178.3 492.7 179.7 514.2 185.5C535.7 191.3 557.3 201.7 578.8 203.2C600.3 204.7 621.7 197.3 643 198.8C664.3 200.3 685.7 210.7 707 208.8C728.3 207 749.7 193 771.2 188.7C792.7 184.3 814.3 189.7 835.8 193.3C857.3 197 878.7 199 889.3 200L900 201L900 301L889.3 301C878.7 301 857.3 301 835.8 301C814.3 301 792.7 301 771.2 301C749.7 301 728.3 301 707 301C685.7 301 664.3 301 643 301C621.7 301 600.3 301 578.8 301C557.3 301 535.7 301 514.2 301C492.7 301 471.3 301 450 301C428.7 301 407.3 301 385.8 301C364.3 301 342.7 301 321.2 301C299.7 301 278.3 301 257 301C235.7 301 214.3 301 193 301C171.7 301 150.3 301 128.8 301C107.3 301 85.7 301 64.2 301C42.7 301 21.3 301 10.7 301L0 301Z" fill="#003c51"></path><path d="M0 241L10.7 239.2C21.3 237.3 42.7 233.7 64.2 233.2C85.7 232.7 107.3 235.3 128.8 229.3C150.3 223.3 171.7 208.7 193 207.5C214.3 206.3 235.7 218.7 257 222.5C278.3 226.3 299.7 221.7 321.2 213.5C342.7 205.3 364.3 193.7 385.8 187.7C407.3 181.7 428.7 181.3 450 182.3C471.3 183.3 492.7 185.7 514.2 193C535.7 200.3 557.3 212.7 578.8 217.3C600.3 222 621.7 219 643 218.5C664.3 218 685.7 220 707 223.5C728.3 227 749.7 232 771.2 225.7C792.7 219.3 814.3 201.7 835.8 194.7C857.3 187.7 878.7 191.3 889.3 193.2L900 195L900 301L889.3 301C878.7 301 857.3 301 835.8 301C814.3 301 792.7 301 771.2 301C749.7 301 728.3 301 707 301C685.7 301 664.3 301 643 301C621.7 301 600.3 301 578.8 301C557.3 301 535.7 301 514.2 301C492.7 301 471.3 301 450 301C428.7 301 407.3 301 385.8 301C364.3 301 342.7 301 321.2 301C299.7 301 278.3 301 257 301C235.7 301 214.3 301 193 301C171.7 301 150.3 301 128.8 301C107.3 301 85.7 301 64.2 301C42.7 301 21.3 301 10.7 301L0 301Z" fill="#003a6a"></path><path d="M0 221L10.7 221.2C21.3 221.3 42.7 221.7 64.2 223.5C85.7 225.3 107.3 228.7 128.8 232.8C150.3 237 171.7 242 193 245C214.3 248 235.7 249 257 246.3C278.3 243.7 299.7 237.3 321.2 232.5C342.7 227.7 364.3 224.3 385.8 228.8C407.3 233.3 428.7 245.7 450 252.3C471.3 259 492.7 260 514.2 257.8C535.7 255.7 557.3 250.3 578.8 245.8C600.3 241.3 621.7 237.7 643 237.8C664.3 238 685.7 242 707 243.3C728.3 244.7 749.7 243.3 771.2 242.8C792.7 242.3 814.3 242.7 835.8 242.3C857.3 242 878.7 241 889.3 240.5L900 240L900 301L889.3 301C878.7 301 857.3 301 835.8 301C814.3 301 792.7 301 771.2 301C749.7 301 728.3 301 707 301C685.7 301 664.3 301 643 301C621.7 301 600.3 301 578.8 301C557.3 301 535.7 301 514.2 301C492.7 301 471.3 301 450 301C428.7 301 407.3 301 385.8 301C364.3 301 342.7 301 321.2 301C299.7 301 278.3 301 257 301C235.7 301 214.3 301 193 301C171.7 301 150.3 301 128.8 301C107.3 301 85.7 301 64.2 301C42.7 301 21.3 301 10.7 301L0 301Z" fill="#252e76"></path><path d="M0 271L10.7 272.7C21.3 274.3 42.7 277.7 64.2 277.3C85.7 277 107.3 273 128.8 268C150.3 263 171.7 257 193 255.5C214.3 254 235.7 257 257 258.2C278.3 259.3 299.7 258.7 321.2 262.8C342.7 267 364.3 276 385.8 276.5C407.3 277 428.7 269 450 265.2C471.3 261.3 492.7 261.7 514.2 259.5C535.7 257.3 557.3 252.7 578.8 255.8C600.3 259 621.7 270 643 270.8C664.3 271.7 685.7 262.3 707 262C728.3 261.7 749.7 270.3 771.2 272.2C792.7 274 814.3 269 835.8 263.5C857.3 258 878.7 252 889.3 249L900 246L900 301L889.3 301C878.7 301 857.3 301 835.8 301C814.3 301 792.7 301 771.2 301C749.7 301 728.3 301 707 301C685.7 301 664.3 301 643 301C621.7 301 600.3 301 578.8 301C557.3 301 535.7 301 514.2 301C492.7 301 471.3 301 450 301C428.7 301 407.3 301 385.8 301C364.3 301 342.7 301 321.2 301C299.7 301 278.3 301 257 301C235.7 301 214.3 301 193 301C171.7 301 150.3 301 128.8 301C107.3 301 85.7 301 64.2 301C42.7 301 21.3 301 10.7 301L0 301Z" fill="#520972"></path></svg>