<svg id="visual" viewBox="0 0 900 300" width="900" height="300" xmlns="http://www.w3.org/2000/svg" xmlns:xlink="http://www.w3.org/1999/xlink" version="1.1"><rect x="0" y="0" width="900" height="300" fill="#bde3ff"></rect><path d="M0 74L18.8 82.8C37.7 91.7 75.3 109.3 112.8 105.3C150.3 101.3 187.7 75.7 225.2 72C262.7 68.3 300.3 86.7 337.8 93.8C375.3 101 412.7 97 450.2 95.3C487.7 93.7 525.3 94.3 562.8 100C600.3 105.7 637.7 116.3 675.2 119.3C712.7 122.3 750.3 117.7 787.8 107.8C825.3 98 862.7 83 881.3 75.5L900 68L900 301L881.3 301C862.7 301 825.3 301 787.8 301C750.3 301 712.7 301 675.2 301C637.7 301 600.3 301 562.8 301C525.3 301 487.7 301 450.2 301C412.7 301 375.3 301 337.8 301C300.3 301 262.7 301 225.2 301C187.7 301 150.3 301 112.8 301C75.3 301 37.7 301 18.8 301L0 301Z" fill="#0099cc"></path><path d="M0 150L18.8 148C37.7 146 75.3 142 112.8 142C150.3 142 187.7 146 225.2 146.8C262.7 147.7 300.3 145.3 337.8 145.5C375.3 145.7 412.7 148.3 450.2 150.2C487.7 152 525.3 153 562.8 153.5C600.3 154 637.7 154 675.2 146.3C712.7 138.7 750.3 123.3 787.8 124.2C825.3 125 862.7 142 881.3 150.5L900 159L900 301L881.3 301C862.7 301 825.3 301 787.8 301C750.3 301 712.7 301 675.2 301C637.7 301 600.3 301 562.8 301C525.3 301 487.7 301 450.2 301C412.7 301 375.3 301 337.8 301C300.3 301 262.7 301 225.2 301C187.7 301 150.3 301 112.8 301C75.3 301 37.7 301 18.8 301L0 301Z" fill="#4987d3"></path><path d="M0 152L18.8 160.3C37.7 168.7 75.3 185.3 112.8 189.2C150.3 193 187.7 184 225.2 183.8C262.7 183.7 300.3 192.3 337.8 194.3C375.3 196.3 412.7 191.7 450.2 180.3C487.7 169 525.3 151 562.8 143.7C600.3 136.3 637.7 139.7 675.2 143.2C712.7 146.7 750.3 150.3 787.8 150C825.3 149.7 862.7 145.3 881.3 143.2L900 141L900 301L881.3 301C862.7 301 825.3 301 787.8 301C750.3 301 712.7 301 675.2 301C637.7 301 600.3 301 562.8 301C525.3 301 487.7 301 450.2 301C412.7 301 375.3 301 337.8 301C300.3 301 262.7 301 225.2 301C187.7 301 150.3 301 112.8 301C75.3 301 37.7 301 18.8 301L0 301Z" fill="#856dc6"></path><path d="M0 216L18.8 211.5C37.7 207 75.3 198 112.8 191.7C150.3 185.3 187.7 181.7 225.2 185.3C262.7 189 300.3 200 337.8 208C375.3 216 412.7 221 450.2 215.2C487.7 209.3 525.3 192.7 562.8 196.5C600.3 200.3 637.7 224.7 675.2 232.7C712.7 240.7 750.3 232.3 787.8 223C825.3 213.7 862.7 203.3 881.3 198.2L900 193L900 301L881.3 301C862.7 301 825.3 301 787.8 301C750.3 301 712.7 301 675.2 301C637.7 301 600.3 301 562.8 301C525.3 301 487.7 301 450.2 301C412.7 301 375.3 301 337.8 301C300.3 301 262.7 301 225.2 301C187.7 301 150.3 301 112.8 301C75.3 301 37.7 301 18.8 301L0 301Z" fill="#b24ba0"></path><path d="M0 223L18.8 231.5C37.7 240 75.3 257 112.8 260.5C150.3 264 187.7 254 225.2 252.3C262.7 250.7 300.3 257.3 337.8 262.8C375.3 268.3 412.7 272.7 450.2 265.7C487.7 258.7 525.3 240.3 562.8 233C600.3 225.7 637.7 229.3 675.2 238.2C712.7 247 750.3 261 787.8 268.2C825.3 275.3 862.7 275.7 881.3 275.8L900 276L900 301L881.3 301C862.7 301 825.3 301 787.8 301C750.3 301 712.7 301 675.2 301C637.7 301 600.3 301 562.8 301C525.3 301 487.7 301 450.2 301C412.7 301 375.3 301 337.8 301C300.3 301 262.7 301 225.2 301C187.7 301 150.3 301 112.8 301C75.3 301 37.7 301 18.8 301L0 301Z" fill="#c62368"></path></svg>